<svg xmlns="http://www.w3.org/2000/svg" viewBox="0 -0.5 36 24" shape-rendering="crispEdges">
<metadata>Made with Pixels to Svg https://codepen.io/shshaw/pen/XbxvNj</metadata>
<path stroke="#d8ffff" d="M0 0h9M0 1h9M0 2h9" />
<path stroke="#42b1ff" d="M9 0h27M9 1h27M9 2h27" />
<path stroke="#71bae2" d="M0 3h3M30 3h3M0 4h3M30 4h3M0 5h3M30 5h3M0 6h6M12 6h6M27 6h3M0 7h6M12 7h6M27 7h3M0 8h6M12 8h6M27 8h3M24 9h3M24 10h3M24 11h3M24 12h3M24 13h3M24 14h3M18 15h3M24 15h6M18 16h3M24 16h6M18 17h3M24 17h6M27 18h6M27 19h6M27 20h6" />
<path stroke="#a3d8e4" d="M3 3h9M3 4h9M3 5h9M6 6h6M6 7h6M6 8h6" />
<path stroke="#2795fb" d="M12 3h18M12 4h18M12 5h18" />
<path stroke="#c9d8cd" d="M33 3h3M33 4h3M33 5h3M30 6h6M30 7h6M30 8h6M27 9h9M27 10h9M27 11h9M27 12h9M27 13h9M27 14h9M21 15h3M30 15h6M21 16h3M30 16h6M21 17h3M30 17h6M15 18h12M33 18h3M15 19h12M33 19h3M15 20h12M33 20h3M12 21h24M12 22h24M12 23h24" />
<path stroke="#2692f9" d="M18 6h9M18 7h9M18 8h9" />
<path stroke="#248ff7" d="M0 9h24M0 10h24M0 11h24" />
<path stroke="#238df6" d="M0 12h24M0 13h24M0 14h24" />
<path stroke="#228af4" d="M0 15h6M9 15h9M0 16h6M9 16h9M0 17h6M9 17h9" />
<path stroke="#68d9ff" d="M6 15h3M6 16h3M6 17h3" />
<path stroke="#2188f2" d="M0 18h15M0 19h15M0 20h15" />
<path stroke="#1f85f1" d="M0 21h12M0 22h12M0 23h12" />
</svg>