<svg xmlns="http://www.w3.org/2000/svg" viewBox="0 -0.5 12 8" shape-rendering="crispEdges">
<metadata>Made with Pixels to Svg https://codepen.io/shshaw/pen/XbxvNj</metadata>
<path stroke="#67b7ff" d="M0 0h3M4 0h6M11 0h1M11 1h1M4 2h1M8 2h1M11 2h1M11 3h1M0 4h1M11 4h1M11 6h1" />
<path stroke="#baf2ff" d="M3 0h1M10 0h1M11 5h1M2 6h1M8 6h1M11 7h1" />
<path stroke="#7aceff" d="M0 1h6M7 1h4M0 2h1M2 2h2M5 2h3M9 2h1M0 3h3M4 3h7M1 4h6M8 4h3M0 5h1M2 5h9M0 6h2M9 6h2" />
<path stroke="#fff3e8" d="M6 1h1M1 2h1M10 2h1M3 3h1M7 4h1M1 5h1M3 6h5M0 7h11" />
</svg>