<svg xmlns="http://www.w3.org/2000/svg" viewBox="0 -0.5 12 8" shape-rendering="crispEdges">
<metadata>Made with Pixels to Svg https://codepen.io/shshaw/pen/XbxvNj</metadata>
<path stroke="#d13400" d="M0 0h12M11 1h1M3 2h4M8 2h2M11 2h1M3 3h1M7 3h1M11 3h1M4 4h1M8 4h1M11 4h1M3 5h1M6 5h1M8 5h1M11 5h1M3 6h3M7 6h2M11 6h1M11 7h1" />
<path stroke="#ff820c" d="M0 1h2M3 1h3M7 1h4M1 2h2M7 2h1M10 2h1M0 3h3M8 3h2M0 4h1M2 4h2M9 4h2M1 5h2M9 5h2M0 6h3M6 6h1M9 6h1M0 7h1M2 7h6M9 7h2" />
<path stroke="#ee7100" d="M2 1h1M0 5h1M10 6h1" />
<path stroke="#ffda73" d="M6 1h1M0 2h1M5 3h1M10 3h1M1 4h1M6 4h2M5 5h1M1 7h1M8 7h1" />
<path stroke="#feff00" d="M4 3h1M5 4h1M4 5h1M7 5h1" />
<path stroke="#f6af00" d="M6 3h1" />
</svg>