<svg xmlns="http://www.w3.org/2000/svg" viewBox="0 -0.5 12 8" shape-rendering="crispEdges">
<metadata>Made with Pixels to Svg https://codepen.io/shshaw/pen/XbxvNj</metadata>
<path stroke="#429ba3" d="M0 0h12M11 1h1M0 5h1M1 6h2M9 6h3M2 7h2M8 7h2M11 7h1" />
<path stroke="#9eff9b" d="M0 1h2M10 1h1M0 6h1M0 7h2M10 7h1" />
<path stroke="#c1bbbe" d="M2 1h1M9 1h1M0 2h1M11 2h1M11 5h1" />
<path stroke="#ff8ee1" d="M3 1h6M1 2h2M9 2h2M0 3h1M2 3h1M9 3h1M11 3h1M1 4h1M4 4h4M10 4h1M5 5h2M4 6h1M7 6h1" />
<path stroke="#d84bb5" d="M3 2h1M8 2h1M3 5h1M8 5h1" />
<path stroke="#763f93" d="M4 2h4M3 3h1M8 3h1M0 4h1M11 4h1M1 5h2M9 5h2M3 6h1M8 6h1M4 7h4" />
<path stroke="#ffd1ff" d="M1 3h1M10 3h1M2 4h2M8 4h2M4 5h1M7 5h1M5 6h2" />
<path stroke="#ffc686" d="M4 3h1M7 3h1" />
<path stroke="#ffff17" d="M5 3h2" />
</svg>