<svg xmlns="http://www.w3.org/2000/svg" viewBox="0 -0.5 12 8" shape-rendering="crispEdges">
<metadata>Made with Pixels to Svg https://codepen.io/shshaw/pen/XbxvNj</metadata>
<path stroke="#8bc6ab" d="M0 0h5M6 0h2M11 4h1M11 5h1" />
<path stroke="#ffffff" d="M5 0h1M9 0h3M6 1h1M10 1h2M7 2h1" />
<path stroke="#ffff17" d="M8 0h1M8 1h2M9 2h3M10 3h2" />
<path stroke="#d1ffea" d="M0 1h2M3 1h2M7 1h1M1 2h3M8 2h1M0 3h3M9 3h1M0 4h5M6 4h5M0 5h2M9 5h2" />
<path stroke="#fff8ed" d="M2 1h1M0 2h1M6 2h1M7 3h2" />
<path stroke="#e9d9cf" d="M5 1h1M5 2h1M6 3h1" />
<path stroke="#c1b4ac" d="M4 2h1M3 3h3" />
<path stroke="#b44c00" d="M5 4h1" />
<path stroke="#ee7100" d="M2 5h7" />
<path stroke="#95e8fc" d="M0 6h3M8 6h3" />
<path stroke="#e36ef3" d="M3 6h5" />
<path stroke="#73c4f0" d="M11 6h1M0 7h12" />
</svg>