<svg xmlns="http://www.w3.org/2000/svg" viewBox="0 -0.5 12 8" shape-rendering="crispEdges">
<metadata>Made with Pixels to Svg https://codepen.io/shshaw/pen/XbxvNj</metadata>
<path stroke="#67b7ff" d="M0 0h12M11 1h1M11 2h1M11 3h1M11 4h1M11 5h1M11 6h1M11 7h1" />
<path stroke="#a9f0ff" d="M0 1h2M3 1h4M8 1h1M10 1h1M1 2h1M4 2h1M6 2h2M10 2h1M0 3h2M10 3h1M0 4h3M9 4h2M0 5h2M8 5h3M0 6h1M7 6h2M10 6h1M0 7h11" />
<path stroke="#0dd20d" d="M2 1h1M9 1h1M3 2h1M8 2h1M2 3h1M9 3h1M1 6h2" />
<path stroke="#fff3e8" d="M7 1h1M0 2h1M9 6h1" />
<path stroke="#0ea70f" d="M2 2h1M9 2h1M7 3h1M3 4h1M8 4h1" />
<path stroke="#d13400" d="M5 2h1M4 3h1M6 3h1M5 4h1M7 4h1M4 5h1M6 5h1M5 6h1" />
<path stroke="#178235" d="M3 3h1M8 3h1M2 5h2M3 6h2" />
<path stroke="#ff820c" d="M5 3h1M4 4h1M6 4h1M5 5h1M7 5h1M6 6h1" />
</svg>