<svg xmlns="http://www.w3.org/2000/svg" viewBox="0 -0.5 72 59" shape-rendering="crispEdges">
<metadata>Made with Pixels to Svg https://codepen.io/shshaw/pen/XbxvNj</metadata>
<path stroke="#5b2b2a" d="M25 0h1M68 0h1M14 1h11M69 1h1M11 2h3M70 2h1M9 3h2M70 3h1M7 4h2M70 4h1M6 5h1M23 5h1M70 5h1M5 6h1M23 6h1M70 6h1M4 7h1M23 7h1M70 7h1M3 8h1M23 8h1M70 8h1M3 9h1M23 9h1M70 9h1M2 10h1M23 10h1M70 10h1M2 11h1M23 11h1M70 11h1M1 12h1M23 12h1M70 12h1M1 13h1M23 13h1M70 13h1M1 14h1M23 14h1M70 14h1M0 15h1M23 15h1M30 15h10M54 15h10M70 15h1M0 16h1M23 16h1M70 16h1M0 17h1M21 17h3M70 17h1M0 18h1M70 18h1M0 19h1M19 19h1M70 19h1M0 20h1M19 20h1M70 20h1M0 21h1M20 21h1M70 21h1M0 22h1M21 22h3M70 22h1M0 23h1M23 23h1M70 23h1M0 24h1M23 24h1M70 24h1M1 25h1M23 25h1M70 25h1M1 26h1M23 26h1M28 26h38M70 26h1M1 27h1M23 27h1M70 27h1M2 28h1M23 28h1M70 28h1M2 29h1M23 29h1M70 29h1M3 30h1M23 30h1M70 30h1M3 31h1M23 31h1M70 31h1M4 32h1M23 32h1M70 32h1M5 33h1M23 33h1M70 33h1M6 34h1M23 34h1M70 34h1M7 35h2M70 35h1M9 36h2M70 36h1M11 37h3M70 37h1M14 38h10M69 38h1M18 39h1M20 39h1M24 39h45M18 40h1M20 40h1M58 40h1M60 40h1M18 41h1M20 41h1M58 41h1M60 41h1M18 42h1M20 42h1M58 42h1M60 42h1M18 43h1M20 43h1M58 43h1M60 43h1M12 44h1M18 44h1M20 44h1M58 44h1M60 44h1M66 44h1M10 45h2M67 45h2M9 46h1M69 46h1M8 47h1M70 47h1M7 48h1M71 48h1M7 49h1M71 49h1M7 50h1M71 50h1M7 51h1M71 51h1M7 52h1M71 52h1M7 53h1M71 53h1M7 54h1M71 54h1M8 55h1M70 55h1M9 56h1M69 56h1M10 57h2M67 57h2M12 58h2M66 58h1" />
<path stroke="#853605" d="M26 0h42M23 2h1M28 3h38M23 4h1M67 5h1M67 6h1M67 7h1M67 8h1M67 9h1M67 10h1M67 11h1M67 12h1M67 13h1M29 15h1M40 15h1M53 15h1M64 15h1M24 22h1M24 23h1M24 24h1M24 25h2M42 25h10M68 25h1M25 26h3M66 26h2M67 27h1M67 28h1M67 29h1M67 30h1M67 31h1M67 32h1M67 33h1M67 34h1M23 35h1M23 36h1M23 37h1M19 39h1M59 40h1M59 42h1M13 44h5M21 44h37M61 44h5M18 45h3M58 45h3M70 48h1M8 54h1M70 54h1M10 56h1M17 56h5M23 56h5M29 56h5M35 56h5M41 56h5M47 56h5M53 56h5M59 56h5M14 58h52" />
<path stroke="#dc7b05" d="M25 1h1M68 1h1M16 2h1M21 2h1M26 2h42M69 2h1M13 3h10M25 3h2M67 3h3M10 4h4M25 4h1M68 4h1M8 5h2M25 5h1M68 5h1M6 6h2M25 6h1M68 6h1M5 7h2M25 7h1M68 7h1M5 8h1M25 8h1M68 8h1M4 9h1M25 9h1M68 9h1M4 10h1M25 10h1M68 10h1M3 11h1M25 11h1M68 11h1M3 12h1M25 12h1M68 12h1M2 13h2M25 13h1M68 13h1M2 14h1M25 14h1M68 14h1M2 15h1M25 15h4M41 15h12M65 15h4M2 16h1M25 16h3M42 16h1M51 16h1M66 16h3M2 17h1M25 17h3M43 17h8M66 17h3M2 18h1M22 18h1M25 18h1M27 18h1M42 18h3M49 18h2M66 18h1M68 18h1M2 19h1M23 19h1M25 19h1M27 19h1M42 19h2M45 19h4M50 19h1M66 19h1M68 19h1M2 20h1M22 20h1M25 20h1M27 20h1M42 20h4M48 20h3M66 20h1M68 20h1M2 21h1M25 21h3M42 21h4M48 21h3M66 21h3M2 22h1M25 22h3M42 22h2M45 22h4M50 22h1M66 22h3M2 23h1M25 23h3M41 23h4M49 23h2M65 23h4M2 24h1M26 24h2M29 24h13M43 24h9M53 24h15M2 25h1M2 26h2M3 27h1M68 27h1M3 28h1M25 28h1M68 28h1M4 29h1M25 29h1M68 29h1M4 30h1M25 30h1M68 30h1M5 31h1M25 31h1M68 31h1M5 32h2M25 32h1M68 32h1M6 33h2M25 33h1M68 33h1M8 34h2M25 34h1M68 34h1M10 35h2M25 35h1M68 35h1M13 36h9M24 36h1M26 36h1M67 36h1M69 36h1M24 37h1M27 37h41M25 38h2M67 38h2M19 41h1M59 41h1M19 43h1M59 43h1M13 45h2M17 45h1M21 45h1M57 45h1M61 45h1M11 46h3M15 46h1M65 46h1M67 46h1M9 47h5M67 47h2M9 48h1M66 48h2M69 48h1M9 49h1M69 49h1M9 50h1M12 50h2M66 50h1M69 50h1M9 51h1M11 51h1M66 51h1M69 51h1M11 52h1M66 52h1M69 52h1M11 53h1M69 53h1M66 54h2M69 54h1M13 55h1M67 55h2M12 56h2M15 56h1M65 56h1M67 56h1M13 57h2" />
<path stroke="#fa9305" d="M26 1h2M66 1h2M17 2h4M25 2h1M68 2h1M43 16h2M42 17h1M26 18h1M45 18h1M67 18h1M44 19h1M49 19h1M46 21h1M51 23h1M25 36h1M68 36h1M26 37h1M69 37h1M15 45h2M22 45h35M62 45h4M14 46h1M66 46h1M14 47h1M66 47h1M10 48h1M14 48h1M68 48h1M14 49h1M66 49h1M14 50h1M14 51h1M14 52h1M14 53h1M66 53h1M14 54h1M68 54h1M14 55h1M66 55h1M14 56h1M66 56h1M15 57h51" />
<path stroke="#f7ba00" d="M28 1h38M45 16h6M51 17h1M46 18h3M51 18h1M26 19h1M51 19h1M67 19h1M51 20h1M47 21h1M51 21h1M51 22h1M25 37h1M68 37h1M13 48h1M10 49h1M68 49h1M12 51h2M68 53h1" />
<path stroke="#b14e05" d="M14 2h2M22 2h1M24 2h1M11 3h2M23 3h2M27 3h1M66 3h1M9 4h1M24 4h1M26 4h1M67 4h1M69 4h1M7 5h1M24 5h1M26 5h1M69 5h1M24 6h1M26 6h1M69 6h1M24 7h1M26 7h1M69 7h1M4 8h1M24 8h1M26 8h1M69 8h1M24 9h1M26 9h1M69 9h1M3 10h1M24 10h1M26 10h1M69 10h1M24 11h1M26 11h1M69 11h1M2 12h1M24 12h1M26 12h1M69 12h1M24 13h1M26 13h1M69 13h1M24 14h1M26 14h42M69 14h1M1 15h1M24 15h1M69 15h1M1 16h1M24 16h1M28 16h1M41 16h1M52 16h1M65 16h1M69 16h1M1 17h1M24 17h1M28 17h1M41 17h1M52 17h1M65 17h1M69 17h1M1 18h1M20 18h2M23 18h2M28 18h1M41 18h1M52 18h1M65 18h1M69 18h1M1 19h1M20 19h3M24 19h1M28 19h1M41 19h1M52 19h1M65 19h1M69 19h1M1 20h1M20 20h2M23 20h2M26 20h1M28 20h1M41 20h1M46 20h2M52 20h1M65 20h1M67 20h1M69 20h1M1 21h1M21 21h4M28 21h1M41 21h1M52 21h1M65 21h1M69 21h1M1 22h1M28 22h1M41 22h1M44 22h1M49 22h1M52 22h1M65 22h1M69 22h1M1 23h1M28 23h1M45 23h4M52 23h1M69 23h1M1 24h1M25 24h1M28 24h1M42 24h1M52 24h1M68 24h2M26 25h16M52 25h16M69 25h1M24 26h1M68 26h2M2 27h1M24 27h3M69 27h1M24 28h1M26 28h1M69 28h1M3 29h1M24 29h1M26 29h1M69 29h1M24 30h1M26 30h1M69 30h1M4 31h1M24 31h1M26 31h1M69 31h1M24 32h1M26 32h1M69 32h1M24 33h1M26 33h1M69 33h1M7 34h1M24 34h1M26 34h1M69 34h1M9 35h1M24 35h1M26 35h1M67 35h1M69 35h1M11 36h2M22 36h1M27 36h40M14 37h9M24 38h1M27 38h40M19 40h1M19 42h1M19 44h1M59 44h1M12 45h1M66 45h1M10 46h1M16 46h49M68 46h1M15 47h1M22 47h1M28 47h1M34 47h1M40 47h1M46 47h1M52 47h1M58 47h1M65 47h1M69 47h1M8 48h1M15 48h1M65 48h1M8 49h1M15 49h1M65 49h1M67 49h1M70 49h1M8 50h1M11 50h1M15 50h1M65 50h1M67 50h1M70 50h1M8 51h1M15 51h1M65 51h1M67 51h1M70 51h1M8 52h2M15 52h1M65 52h1M67 52h1M70 52h1M8 53h2M12 53h1M15 53h1M65 53h1M67 53h1M70 53h1M9 54h2M13 54h1M15 54h1M65 54h1M9 55h4M15 55h1M65 55h1M69 55h1M11 56h1M16 56h1M22 56h1M28 56h1M34 56h1M40 56h1M46 56h1M52 56h1M58 56h1M64 56h1M68 56h1M12 57h1M66 57h1" />
<path stroke="#875679" d="M14 4h1" />
<path stroke="#656a89" d="M15 4h8M13 5h8M22 5h1M14 6h3M18 6h5M15 7h8M16 8h7M17 9h6M18 10h3M22 10h1M19 11h4M20 12h3M21 13h2M22 14h1M22 15h1M22 16h1" />
<path stroke="#d5864f" d="M27 4h40M66 5h1M66 6h1M66 7h1M66 8h1M66 9h1M66 10h1M66 11h1M66 12h1M66 13h1M27 27h40M66 28h1M66 29h1M66 30h1M66 31h1M66 32h1M66 33h1M66 34h1M66 35h1M16 47h6M23 47h5M29 47h5M35 47h5M41 47h5M47 47h5M53 47h5M59 47h6M16 48h1M22 48h1M28 48h1M34 48h1M40 48h1M46 48h1M52 48h1M58 48h1M64 48h1M16 49h1M64 49h1M16 50h1M64 50h1M16 51h1M64 51h1M16 52h1M64 52h1M16 53h1M64 53h1M16 54h1M64 54h1M16 55h1M22 55h1M28 55h1M34 55h1M40 55h1M46 55h1M52 55h1M58 55h1M64 55h1" />
<path stroke="#be9793" d="M10 5h1M8 6h1M5 9h1" />
<path stroke="#959fd9" d="M11 5h2M9 6h5M7 7h8M6 8h5M14 8h2M6 9h4M15 9h2M5 10h4M16 10h2M7 11h2M16 11h3M16 12h4M15 13h6M14 14h8M15 15h7M17 16h5M19 17h2M22 23h1" />
<path stroke="#9bb6ef" d="M21 5h1M5 11h2M4 12h1M6 12h3M8 13h2M10 14h1M3 15h1M12 15h3M3 16h1M14 16h3M16 17h3M18 18h2" />
<path stroke="#ffd787" d="M27 5h39M27 6h39M27 7h39" />
<path stroke="#bff2ff" d="M17 6h1M21 10h1M17 23h3M15 24h7M14 25h8M15 26h7M16 27h5M7 28h2M16 28h4M6 29h3M16 29h3M6 30h4M15 30h3M7 31h4M14 31h3M8 32h8M10 33h5M12 34h2" />
<path stroke="#b1afa9" d="M11 8h3M10 9h1M14 9h1M9 10h1M15 10h1M9 11h1M15 11h1M9 12h1M15 12h1M10 13h1M14 13h1M11 14h3" />
<path stroke="#ffcf7f" d="M27 8h39M27 9h39M27 10h39" />
<path stroke="#ffffff" d="M11 9h3M11 10h4M11 11h4M12 12h3" />
<path stroke="#e4dfd5" d="M10 10h1M10 11h1M10 12h2M11 13h3" />
<path stroke="#afaba1" d="M4 11h1M3 14h1" />
<path stroke="#f7c77f" d="M27 11h39" />
<path stroke="#84c1ff" d="M5 12h1M4 13h4M4 14h6M4 15h8M4 16h10M3 17h13M3 18h15M18 19h1M18 20h1M18 21h2M19 22h2M20 23h2M22 26h1M22 27h1M22 28h1M22 29h1M22 30h1M22 31h1M22 32h1M22 33h1M22 34h1M14 35h1M22 35h1" />
<path stroke="#f7c777" d="M27 12h39" />
<path stroke="#e7a160" d="M27 13h39M27 34h39M27 35h39M22 49h1M28 49h1M34 49h1M40 49h1M46 49h1M52 49h1M58 49h1M22 50h1M28 50h1M34 50h1M40 50h1M46 50h1M52 50h1M58 50h1M22 51h1M28 51h1M34 51h1M40 51h1M46 51h1M52 51h1M58 51h1M22 52h1M28 52h1M34 52h1M40 52h1M46 52h1M52 52h1M58 52h1M22 53h1M28 53h1M34 53h1M40 53h1M46 53h1M52 53h1M58 53h1M22 54h1M28 54h1M34 54h1M40 54h1M46 54h1M52 54h1M58 54h1" />
<path stroke="#96d5ff" d="M3 19h15M3 20h15M3 24h1M4 27h1" />
<path stroke="#a1edff" d="M3 21h15M3 22h16M3 23h14M4 24h11M4 25h7M4 26h6M5 27h4M5 28h2M5 29h1M6 31h1M7 32h1M9 33h1M11 34h1" />
<path stroke="#9ad4e2" d="M22 24h1M22 25h1M21 27h1M20 28h2M19 29h3M18 30h4M17 31h5M16 32h6M15 33h7M14 34h8M15 35h7" />
<path stroke="#bab586" d="M3 25h1M4 28h1M5 30h1M8 33h1M10 34h1M12 35h2" />
<path stroke="#f5cb80" d="M11 25h3M10 26h1M14 26h1M9 27h1M15 27h1M9 28h1M15 28h1M9 29h1M15 29h1M10 30h1M14 30h1M11 31h3" />
<path stroke="#fffe80" d="M11 26h3M11 27h4M11 28h4M12 29h3M11 48h2M68 50h1M68 51h1M68 52h1" />
<path stroke="#fce380" d="M10 27h1M10 28h1M10 29h2M11 30h3" />
<path stroke="#ffd87f" d="M27 28h39M27 29h39" />
<path stroke="#ffcc7f" d="M27 30h39M27 31h39" />
<path stroke="#f2bf72" d="M27 32h39M27 33h39M17 55h1M21 55h1M23 55h1M27 55h1M29 55h1M33 55h1M35 55h1M39 55h1M41 55h1M45 55h1M47 55h1M51 55h1M53 55h1M57 55h1M59 55h1M63 55h1" />
<path stroke="#ffd284" d="M17 48h1M21 48h1M23 48h1M27 48h1M29 48h1M33 48h1M35 48h1M39 48h1M41 48h1M45 48h1M47 48h1M51 48h1M53 48h1M57 48h1M59 48h1M63 48h1M18 49h3M24 49h3M30 49h3M36 49h3M42 49h3M48 49h3M54 49h3M60 49h3M17 50h5M23 50h5M29 50h5M35 50h5M41 50h5M47 50h5M53 50h5M59 50h5M17 51h5M23 51h5M29 51h5M35 51h5M41 51h5M47 51h5M53 51h5M59 51h5M17 52h5M23 52h5M29 52h5M35 52h5M41 52h5M47 52h5M53 52h5M59 52h5M17 53h5M23 53h5M29 53h5M35 53h5M41 53h5M47 53h5M53 53h5M59 53h5M17 54h5M23 54h5M29 54h5M35 54h5M41 54h5M47 54h5M53 54h5M59 54h5M18 55h3M24 55h3M30 55h3M36 55h3M42 55h3M48 55h3M54 55h3M60 55h3" />
<path stroke="#ffecad" d="M18 48h3M24 48h3M30 48h3M36 48h3M42 48h3M48 48h3M54 48h3M60 48h3M17 49h1M21 49h1M23 49h1M27 49h1M29 49h1M33 49h1M35 49h1M39 49h1M41 49h1M45 49h1M47 49h1M51 49h1M53 49h1M57 49h1M59 49h1M63 49h1" />
<path stroke="#6b2100" d="M11 49h3M10 50h1M10 51h1M10 52h1M12 52h2M10 53h1M13 53h1M11 54h2" />
</svg>