<svg xmlns="http://www.w3.org/2000/svg" viewBox="0 -0.5 7 19" shape-rendering="crispEdges">
<metadata>Made with Pixels to Svg https://codepen.io/shshaw/pen/XbxvNj</metadata>
<path stroke="#b14e05" d="M3 0h1M2 1h1M4 1h1M2 2h1M4 2h1M1 3h1M5 3h1M1 4h1M5 4h1M0 5h1M6 5h1M0 6h1M6 6h1M0 7h3M4 7h3M2 10h1M4 10h1M2 11h1M4 11h1M2 12h1M4 12h1M2 13h1M4 13h1M3 17h1" />
<path stroke="#f7ba00" d="M3 1h1M3 3h1M2 4h3M1 5h2M4 5h2M1 6h1M5 6h1M3 10h1M3 14h1" />
<path stroke="#fffe80" d="M3 2h1M2 3h1M4 3h1M3 11h1M3 12h1M3 13h1" />
<path stroke="#dc7b05" d="M3 5h1M2 6h3M3 7h1M3 8h1M3 9h1M3 15h1" />
<path stroke="#5b2b2a" d="M2 8h1M4 8h1M2 9h1M4 9h1M2 14h1M4 14h1M2 15h1M4 15h1M2 16h3M2 17h1M4 17h1M3 18h1" />
</svg>